<?xml version="1.0" encoding="UTF-8" standalone="no"?><!DOCTYPE svg PUBLIC "-//W3C//DTD SVG 1.1//EN" "http://www.w3.org/Graphics/SVG/1.1/DTD/svg11.dtd"><!-- Generated by graphviz version 2.40.1 (20161225.0304)
 --><!-- Title: G Pages: 1 --><svg xmlns="http://www.w3.org/2000/svg" xmlns:xlink="http://www.w3.org/1999/xlink" width="284pt" height="399pt" viewBox="0.00 0.00 284.05 399.20">
<g id="graph0" class="graph" transform="scale(1 1) rotate(0) translate(4 395.2)">
<title>G</title>
<polygon fill="#ffffff" stroke="transparent" points="-4,4 -4,-395.2 280.053,-395.2 280.053,4 -4,4"/>
<!-- q0 -->
<g id="node1" class="node">
<title>q0</title>
<ellipse fill="none" stroke="#000000" cx="193" cy="-373.2" rx="27" ry="18"/>
<text text-anchor="middle" x="193" y="-369" font-family="Times,serif" font-size="14.00" fill="#000000">q0</text>
</g>
<!-- q1 -->
<g id="node2" class="node">
<title>q1</title>
<ellipse fill="none" stroke="#000000" cx="142" cy="-284.4" rx="27" ry="18"/>
<text text-anchor="middle" x="142" y="-280.2" font-family="Times,serif" font-size="14.00" fill="#000000">q1</text>
</g>
<!-- q0&#45;&gt;q1 -->
<g id="edge1" class="edge">
<title>q0-&gt;q1</title>
<path fill="none" stroke="#000000" d="M183.1667,-356.0785C175.6879,-343.0566 165.2738,-324.9238 156.7914,-310.1545"/>
<polygon fill="#000000" stroke="#000000" points="159.8185,-308.3975 151.8031,-301.469 153.7484,-311.8837 159.8185,-308.3975"/>
<text text-anchor="middle" x="187.8519" y="-324.6" font-family="Times,serif" font-size="14.00" fill="#000000">1|1|D</text>
</g>
<!-- poubelle -->
<g id="node6" class="node">
<title>poubelle</title>
<ellipse fill="none" stroke="#000000" cx="167" cy="-18" rx="44.0833" ry="18"/>
<text text-anchor="middle" x="167" y="-13.8" font-family="Times,serif" font-size="14.00" fill="#000000">poubelle</text>
</g>
<!-- q0&#45;&gt;poubelle -->
<g id="edge7" class="edge">
<title>q0-&gt;poubelle</title>
<path fill="none" stroke="#000000" d="M208.3017,-358.0303C223.3241,-341.4553 244,-313.3787 244,-284.4 244,-284.4 244,-284.4 244,-106.8 244,-78.3377 221.1408,-54.529 200.3325,-38.7525"/>
<polygon fill="#000000" stroke="#000000" points="202.3722,-35.9083 192.2127,-32.9024 198.2802,-41.5878 202.3722,-35.9083"/>
<text text-anchor="middle" x="260.0265" y="-199.8" font-family="Times,serif" font-size="14.00" fill="#000000">0|0|S</text>
<text text-anchor="middle" x="260.0265" y="-183" font-family="Times,serif" font-size="14.00" fill="#000000">B|B|S</text>
</g>
<!-- q1&#45;&gt;q1 -->
<g id="edge2" class="edge">
<title>q1-&gt;q1</title>
<path fill="none" stroke="#000000" d="M166.5325,-292.5211C177.5078,-293.2945 187,-290.5875 187,-284.4 187,-280.2428 182.7151,-277.6567 176.5743,-276.6417"/>
<polygon fill="#000000" stroke="#000000" points="176.6524,-273.1424 166.5325,-276.2789 176.3995,-280.1378 176.6524,-273.1424"/>
<text text-anchor="middle" x="201.8519" y="-280.2" font-family="Times,serif" font-size="14.00" fill="#000000">1|1|D</text>
</g>
<!-- q2 -->
<g id="node3" class="node">
<title>q2</title>
<ellipse fill="none" stroke="#000000" cx="137" cy="-195.6" rx="27" ry="18"/>
<text text-anchor="middle" x="137" y="-191.4" font-family="Times,serif" font-size="14.00" fill="#000000">q2</text>
</g>
<!-- q1&#45;&gt;q2 -->
<g id="edge3" class="edge">
<title>q1-&gt;q2</title>
<path fill="none" stroke="#000000" d="M140.964,-266.0006C140.2756,-253.775 139.3586,-237.4887 138.58,-223.6599"/>
<polygon fill="#000000" stroke="#000000" points="142.0743,-223.4594 138.0176,-213.672 135.0854,-223.853 142.0743,-223.4594"/>
<text text-anchor="middle" x="154.8519" y="-235.8" font-family="Times,serif" font-size="14.00" fill="#000000">0|0|D</text>
</g>
<!-- q1&#45;&gt;poubelle -->
<g id="edge8" class="edge">
<title>q1-&gt;poubelle</title>
<path fill="none" stroke="#000000" d="M158.8683,-269.8697C164.7003,-263.8549 170.616,-256.4113 174,-248.4 202.7596,-180.3134 186.378,-90.5464 175.0207,-45.8212"/>
<polygon fill="#000000" stroke="#000000" points="178.3548,-44.7385 172.412,-35.9674 171.5879,-46.5301 178.3548,-44.7385"/>
<text text-anchor="middle" x="206.0265" y="-147" font-family="Times,serif" font-size="14.00" fill="#000000">B|B|S</text>
</g>
<!-- q3 -->
<g id="node4" class="node">
<title>q3</title>
<ellipse fill="none" stroke="#000000" cx="27" cy="-106.8" rx="27" ry="18"/>
<text text-anchor="middle" x="27" y="-102.6" font-family="Times,serif" font-size="14.00" fill="#000000">q3</text>
</g>
<!-- q2&#45;&gt;q3 -->
<g id="edge4" class="edge">
<title>q2-&gt;q3</title>
<path fill="none" stroke="#000000" d="M119.3266,-181.3327C101.1784,-166.6822 72.7638,-143.7439 52.249,-127.1828"/>
<polygon fill="#000000" stroke="#000000" points="54.2464,-124.2971 44.2669,-120.7391 49.8494,-129.7439 54.2464,-124.2971"/>
<text text-anchor="middle" x="106.8519" y="-147" font-family="Times,serif" font-size="14.00" fill="#000000">1|1|D</text>
</g>
<!-- q2&#45;&gt;poubelle -->
<g id="edge9" class="edge">
<title>q2-&gt;poubelle</title>
<path fill="none" stroke="#000000" d="M138.8567,-177.3798C141.1502,-156.0572 145.4338,-119.7269 150.947,-88.8 153.4952,-74.5055 157.0009,-58.7387 160.0862,-45.7194"/>
<polygon fill="#000000" stroke="#000000" points="163.5007,-46.4898 162.4442,-35.9478 156.696,-44.8478 163.5007,-46.4898"/>
<text text-anchor="middle" x="167.0265" y="-111" font-family="Times,serif" font-size="14.00" fill="#000000">0|0|S</text>
<text text-anchor="middle" x="167.0265" y="-94.2" font-family="Times,serif" font-size="14.00" fill="#000000">B|B|S</text>
</g>
<!-- q3&#45;&gt;q3 -->
<g id="edge5" class="edge">
<title>q3-&gt;q3</title>
<path fill="none" stroke="#000000" d="M51.5325,-114.9211C62.5078,-115.6945 72,-112.9875 72,-106.8 72,-102.6428 67.7151,-100.0567 61.5743,-99.0417"/>
<polygon fill="#000000" stroke="#000000" points="61.6524,-95.5424 51.5325,-98.6789 61.3995,-102.5378 61.6524,-95.5424"/>
<text text-anchor="middle" x="86.8519" y="-102.6" font-family="Times,serif" font-size="14.00" fill="#000000">1|1|D</text>
</g>
<!-- qf -->
<g id="node5" class="node">
<title>qf</title>
<ellipse fill="none" stroke="#000000" cx="27" cy="-18" rx="27" ry="18"/>
<text text-anchor="middle" x="27" y="-13.8" font-family="Times,serif" font-size="14.00" fill="#000000">qf</text>
</g>
<!-- q3&#45;&gt;qf -->
<g id="edge6" class="edge">
<title>q3-&gt;qf</title>
<path fill="none" stroke="#000000" d="M27,-88.4006C27,-76.2949 27,-60.2076 27,-46.4674"/>
<polygon fill="#000000" stroke="#000000" points="30.5001,-46.072 27,-36.072 23.5001,-46.0721 30.5001,-46.072"/>
<text text-anchor="middle" x="43.0265" y="-58.2" font-family="Times,serif" font-size="14.00" fill="#000000">B|B|S</text>
</g>
<!-- q3&#45;&gt;poubelle -->
<g id="edge10" class="edge">
<title>q3-&gt;poubelle</title>
<path fill="none" stroke="#000000" d="M43.8309,-92.4043C57.3365,-81.2153 77.0433,-65.685 95.6202,-54 105.7972,-47.5986 117.2598,-41.4074 127.9728,-36.0171"/>
<polygon fill="#000000" stroke="#000000" points="129.7181,-39.059 137.143,-31.5012 126.6256,-32.7792 129.7181,-39.059"/>
<text text-anchor="middle" x="109.6899" y="-58.2" font-family="Times,serif" font-size="14.00" fill="#000000">0|0|S</text>
</g>
</g>
</svg>