<?xml version="1.0" encoding="UTF-8" standalone="no"?><!DOCTYPE svg PUBLIC "-//W3C//DTD SVG 1.1//EN" "http://www.w3.org/Graphics/SVG/1.1/DTD/svg11.dtd"><!-- Generated by graphviz version 2.40.1 (20161225.0304)
 --><!-- Title: exo2_2 Pages: 1 --><svg xmlns="http://www.w3.org/2000/svg" xmlns:xlink="http://www.w3.org/1999/xlink" width="410pt" height="662pt" viewBox="0.00 0.00 409.70 661.80">
<g id="graph0" class="graph" transform="scale(1 1) rotate(0) translate(4 657.8)">
<title>exo2_2</title>
<polygon fill="#ffffff" stroke="transparent" points="-4,4 -4,-657.8 405.7038,-657.8 405.7038,4 -4,4"/>
<!-- q0 -->
<g id="node1" class="node">
<title>q0</title>
<ellipse fill="none" stroke="#000000" cx="82" cy="-635.8" rx="27" ry="18"/>
<text text-anchor="middle" x="82" y="-631.6" font-family="Times,serif" font-size="14.00" fill="#000000">q0</text>
</g>
<!-- q1 -->
<g id="node2" class="node">
<title>q1</title>
<ellipse fill="none" stroke="#000000" cx="82" cy="-530.2" rx="27" ry="18"/>
<text text-anchor="middle" x="82" y="-526" font-family="Times,serif" font-size="14.00" fill="#000000">q1</text>
</g>
<!-- q0&#45;&gt;q1 -->
<g id="edge1" class="edge">
<title>q0-&gt;q1</title>
<path fill="none" stroke="#000000" d="M82,-617.4059C82,-601.1279 82,-577.1223 82,-558.4163"/>
<polygon fill="#000000" stroke="#000000" points="85.5001,-558.3833 82,-548.3833 78.5001,-558.3834 85.5001,-558.3833"/>
<text text-anchor="middle" x="96.8519" y="-587.2" font-family="Times,serif" font-size="14.00" fill="#000000">0|x|D</text>
<text text-anchor="middle" x="96.8519" y="-570.4" font-family="Times,serif" font-size="14.00" fill="#000000">1|y|D</text>
</g>
<!-- q4 -->
<g id="node3" class="node">
<title>q4</title>
<ellipse fill="none" stroke="#000000" cx="202" cy="-530.2" rx="27" ry="18"/>
<text text-anchor="middle" x="202" y="-526" font-family="Times,serif" font-size="14.00" fill="#000000">q4</text>
</g>
<!-- q0&#45;&gt;q4 -->
<g id="edge2" class="edge">
<title>q0-&gt;q4</title>
<path fill="none" stroke="#000000" d="M98.6855,-621.1168C119.1938,-603.0694 154.1587,-572.3004 177.6629,-551.6166"/>
<polygon fill="#000000" stroke="#000000" points="180.2613,-553.9923 185.4562,-544.7585 175.6369,-548.7373 180.2613,-553.9923"/>
<text text-anchor="middle" x="174.8519" y="-587.2" font-family="Times,serif" font-size="14.00" fill="#000000">x|x|D</text>
<text text-anchor="middle" x="174.8519" y="-570.4" font-family="Times,serif" font-size="14.00" fill="#000000">y|y|D</text>
</g>
<!-- q1&#45;&gt;q1 -->
<g id="edge3" class="edge">
<title>q1-&gt;q1</title>
<path fill="none" stroke="#000000" d="M105.1534,-539.662C116.7003,-540.9712 127,-537.8172 127,-530.2 127,-524.9632 122.1318,-521.8359 115.337,-520.8182"/>
<polygon fill="#000000" stroke="#000000" points="115.1807,-517.317 105.1534,-520.738 115.1255,-524.3168 115.1807,-517.317"/>
<text text-anchor="middle" x="141.8519" y="-534.4" font-family="Times,serif" font-size="14.00" fill="#000000">0|0|D</text>
<text text-anchor="middle" x="141.8519" y="-517.6" font-family="Times,serif" font-size="14.00" fill="#000000">1|1|D</text>
</g>
<!-- q2 -->
<g id="node4" class="node">
<title>q2</title>
<ellipse fill="none" stroke="#000000" cx="82" cy="-407.8" rx="27" ry="18"/>
<text text-anchor="middle" x="82" y="-403.6" font-family="Times,serif" font-size="14.00" fill="#000000">q2</text>
</g>
<!-- q1&#45;&gt;q2 -->
<g id="edge4" class="edge">
<title>q1-&gt;q2</title>
<path fill="none" stroke="#000000" d="M82,-512.1395C82,-492.0712 82,-459.4113 82,-435.9752"/>
<polygon fill="#000000" stroke="#000000" points="85.5001,-435.9346 82,-425.9346 78.5001,-435.9347 85.5001,-435.9346"/>
<text text-anchor="middle" x="96.8519" y="-481.6" font-family="Times,serif" font-size="14.00" fill="#000000">b|b|G</text>
<text text-anchor="middle" x="96.8519" y="-464.8" font-family="Times,serif" font-size="14.00" fill="#000000">x|x|G</text>
<text text-anchor="middle" x="96.8519" y="-448" font-family="Times,serif" font-size="14.00" fill="#000000">y|y|G</text>
</g>
<!-- q5 -->
<g id="node6" class="node">
<title>q5</title>
<ellipse fill="none" stroke="#000000" cx="327" cy="-407.8" rx="27" ry="18"/>
<text text-anchor="middle" x="327" y="-403.6" font-family="Times,serif" font-size="14.00" fill="#000000">q5</text>
</g>
<!-- q4&#45;&gt;q5 -->
<g id="edge8" class="edge">
<title>q4-&gt;q5</title>
<path fill="none" stroke="#000000" d="M217.3275,-515.1914C239.0692,-493.9019 279.019,-454.783 304.232,-430.0944"/>
<polygon fill="#000000" stroke="#000000" points="306.8509,-432.4286 311.5472,-422.9314 301.9534,-427.427 306.8509,-432.4286"/>
<text text-anchor="middle" x="304.8519" y="-464.8" font-family="Times,serif" font-size="14.00" fill="#000000">y|1|G</text>
</g>
<!-- q9 -->
<g id="node7" class="node">
<title>q9</title>
<ellipse fill="none" stroke="#000000" cx="204" cy="-407.8" rx="27" ry="18"/>
<text text-anchor="middle" x="204" y="-403.6" font-family="Times,serif" font-size="14.00" fill="#000000">q9</text>
</g>
<!-- q4&#45;&gt;q9 -->
<g id="edge9" class="edge">
<title>q4-&gt;q9</title>
<path fill="none" stroke="#000000" d="M202.2951,-512.1395C202.623,-492.0712 203.1567,-459.4113 203.5396,-435.9752"/>
<polygon fill="#000000" stroke="#000000" points="207.0397,-435.9905 203.7037,-425.9346 200.0407,-435.8761 207.0397,-435.9905"/>
<text text-anchor="middle" x="217.8519" y="-464.8" font-family="Times,serif" font-size="14.00" fill="#000000">x|0|G</text>
</g>
<!-- q3 -->
<g id="node5" class="node">
<title>q3</title>
<ellipse fill="none" stroke="#000000" cx="27" cy="-285.4" rx="27" ry="18"/>
<text text-anchor="middle" x="27" y="-281.2" font-family="Times,serif" font-size="14.00" fill="#000000">q3</text>
</g>
<!-- q2&#45;&gt;q3 -->
<g id="edge5" class="edge">
<title>q2-&gt;q3</title>
<path fill="none" stroke="#000000" d="M74.2365,-390.5227C65.0756,-370.1356 49.7388,-336.0043 39.0345,-312.1822"/>
<polygon fill="#000000" stroke="#000000" points="42.1934,-310.6727 34.9021,-302.9858 35.8083,-313.5418 42.1934,-310.6727"/>
<text text-anchor="middle" x="80.8519" y="-350.8" font-family="Times,serif" font-size="14.00" fill="#000000">0|x|G</text>
<text text-anchor="middle" x="80.8519" y="-334" font-family="Times,serif" font-size="14.00" fill="#000000">1|y|G</text>
</g>
<!-- q3&#45;&gt;q0 -->
<g id="edge7" class="edge">
<title>q3-&gt;q0</title>
<path fill="none" stroke="#000000" d="M26.355,-303.5399C25.2434,-346.6289 24.8401,-458.2523 46,-548.2 51.0046,-569.4737 60.5167,-592.2708 68.5068,-609.2747"/>
<polygon fill="#000000" stroke="#000000" points="65.4905,-611.0776 72.9898,-618.5617 71.7945,-608.0345 65.4905,-611.0776"/>
<text text-anchor="middle" x="50.8519" y="-473.2" font-family="Times,serif" font-size="14.00" fill="#000000">x|x|D</text>
<text text-anchor="middle" x="50.8519" y="-456.4" font-family="Times,serif" font-size="14.00" fill="#000000">y|y|D</text>
</g>
<!-- q3&#45;&gt;q3 -->
<g id="edge6" class="edge">
<title>q3-&gt;q3</title>
<path fill="none" stroke="#000000" d="M51.5325,-293.5211C62.5078,-294.2945 72,-291.5875 72,-285.4 72,-281.2428 67.7151,-278.6567 61.5743,-277.6417"/>
<polygon fill="#000000" stroke="#000000" points="61.6524,-274.1424 51.5325,-277.2789 61.3995,-281.1378 61.6524,-274.1424"/>
<text text-anchor="middle" x="86.8519" y="-289.6" font-family="Times,serif" font-size="14.00" fill="#000000">0|0|G</text>
<text text-anchor="middle" x="86.8519" y="-272.8" font-family="Times,serif" font-size="14.00" fill="#000000">1|1|G</text>
</g>
<!-- q5&#45;&gt;q5 -->
<g id="edge10" class="edge">
<title>q5-&gt;q5</title>
<path fill="none" stroke="#000000" d="M348.7624,-418.5117C360.8599,-420.5112 372,-416.9406 372,-407.8 372,-401.3016 366.3694,-397.6185 358.7672,-396.7506"/>
<polygon fill="#000000" stroke="#000000" points="358.6386,-393.2529 348.7624,-397.0883 358.8748,-400.2489 358.6386,-393.2529"/>
<text text-anchor="middle" x="386.8519" y="-412" font-family="Times,serif" font-size="14.00" fill="#000000">x|x|G</text>
<text text-anchor="middle" x="386.8519" y="-395.2" font-family="Times,serif" font-size="14.00" fill="#000000">y|y|G</text>
</g>
<!-- q6 -->
<g id="node8" class="node">
<title>q6</title>
<ellipse fill="none" stroke="#000000" cx="328" cy="-285.4" rx="27" ry="18"/>
<text text-anchor="middle" x="328" y="-281.2" font-family="Times,serif" font-size="14.00" fill="#000000">q6</text>
</g>
<!-- q5&#45;&gt;q6 -->
<g id="edge11" class="edge">
<title>q5-&gt;q6</title>
<path fill="none" stroke="#000000" d="M327.1476,-389.7395C327.3115,-369.6712 327.5783,-337.0113 327.7698,-313.5752"/>
<polygon fill="#000000" stroke="#000000" points="331.2699,-313.5629 327.8518,-303.5346 324.2702,-313.5057 331.2699,-313.5629"/>
<text text-anchor="middle" x="341.8519" y="-359.2" font-family="Times,serif" font-size="14.00" fill="#000000">b|b|D</text>
<text text-anchor="middle" x="341.8519" y="-342.4" font-family="Times,serif" font-size="14.00" fill="#000000">1|1|D</text>
<text text-anchor="middle" x="341.8519" y="-325.6" font-family="Times,serif" font-size="14.00" fill="#000000">0|0|D</text>
</g>
<!-- q9&#45;&gt;q9 -->
<g id="edge18" class="edge">
<title>q9-&gt;q9</title>
<path fill="none" stroke="#000000" d="M225.7624,-418.5117C237.8599,-420.5112 249,-416.9406 249,-407.8 249,-401.3016 243.3694,-397.6185 235.7672,-396.7506"/>
<polygon fill="#000000" stroke="#000000" points="235.6386,-393.2529 225.7624,-397.0883 235.8748,-400.2489 235.6386,-393.2529"/>
<text text-anchor="middle" x="263.8519" y="-412" font-family="Times,serif" font-size="14.00" fill="#000000">x|x|G</text>
<text text-anchor="middle" x="263.8519" y="-395.2" font-family="Times,serif" font-size="14.00" fill="#000000">y|y|G</text>
</g>
<!-- q10 -->
<g id="node12" class="node">
<title>q10</title>
<ellipse fill="none" stroke="#000000" cx="209" cy="-285.4" rx="27" ry="18"/>
<text text-anchor="middle" x="209" y="-281.2" font-family="Times,serif" font-size="14.00" fill="#000000">q10</text>
</g>
<!-- q9&#45;&gt;q10 -->
<g id="edge19" class="edge">
<title>q9-&gt;q10</title>
<path fill="none" stroke="#000000" d="M204.7378,-389.7395C205.5575,-369.6712 206.8917,-337.0113 207.8491,-313.5752"/>
<polygon fill="#000000" stroke="#000000" points="211.348,-313.6692 208.2592,-303.5346 204.3539,-313.3834 211.348,-313.6692"/>
<text text-anchor="middle" x="221.8519" y="-359.2" font-family="Times,serif" font-size="14.00" fill="#000000">b|b|D</text>
<text text-anchor="middle" x="221.8519" y="-342.4" font-family="Times,serif" font-size="14.00" fill="#000000">1|1|D</text>
<text text-anchor="middle" x="221.8519" y="-325.6" font-family="Times,serif" font-size="14.00" fill="#000000">0|0|D</text>
</g>
<!-- q7 -->
<g id="node9" class="node">
<title>q7</title>
<ellipse fill="none" stroke="#000000" cx="209" cy="-196.6" rx="27" ry="18"/>
<text text-anchor="middle" x="209" y="-192.4" font-family="Times,serif" font-size="14.00" fill="#000000">q7</text>
</g>
<!-- q6&#45;&gt;q7 -->
<g id="edge12" class="edge">
<title>q6-&gt;q7</title>
<path fill="none" stroke="#000000" d="M309.9265,-271.9132C290.0935,-257.1135 258.0698,-233.2168 235.4203,-216.3153"/>
<polygon fill="#000000" stroke="#000000" points="237.3514,-213.3893 227.2436,-210.2137 233.165,-218.9994 237.3514,-213.3893"/>
<text text-anchor="middle" x="293.8519" y="-236.8" font-family="Times,serif" font-size="14.00" fill="#000000">y|1|D</text>
</g>
<!-- q7&#45;&gt;q7 -->
<g id="edge13" class="edge">
<title>q7-&gt;q7</title>
<path fill="none" stroke="#000000" d="M233.5325,-204.7211C244.5078,-205.4945 254,-202.7875 254,-196.6 254,-192.4428 249.7151,-189.8567 243.5743,-188.8417"/>
<polygon fill="#000000" stroke="#000000" points="243.6524,-185.3424 233.5325,-188.4789 243.3995,-192.3378 243.6524,-185.3424"/>
<text text-anchor="middle" x="268.8519" y="-200.8" font-family="Times,serif" font-size="14.00" fill="#000000">x|x|D</text>
<text text-anchor="middle" x="268.8519" y="-184" font-family="Times,serif" font-size="14.00" fill="#000000">y|y|D</text>
</g>
<!-- q8 -->
<g id="node10" class="node">
<title>q8</title>
<ellipse fill="none" stroke="#000000" cx="153" cy="-91" rx="27" ry="18"/>
<text text-anchor="middle" x="153" y="-86.8" font-family="Times,serif" font-size="14.00" fill="#000000">q8</text>
</g>
<!-- q7&#45;&gt;q8 -->
<g id="edge14" class="edge">
<title>q7-&gt;q8</title>
<path fill="none" stroke="#000000" d="M199.7527,-179.1623C190.7826,-162.2471 177.0601,-136.3705 166.7986,-117.0203"/>
<polygon fill="#000000" stroke="#000000" points="169.8524,-115.3081 162.0752,-108.1132 163.6681,-118.5876 169.8524,-115.3081"/>
<text text-anchor="middle" x="203.8519" y="-148" font-family="Times,serif" font-size="14.00" fill="#000000">0|0|D</text>
<text text-anchor="middle" x="203.8519" y="-131.2" font-family="Times,serif" font-size="14.00" fill="#000000">1|1|D</text>
</g>
<!-- q8&#45;&gt;q4 -->
<g id="edge17" class="edge">
<title>q8-&gt;q4</title>
<path fill="none" stroke="#000000" d="M148.6279,-108.8127C143.8906,-129.7052 137,-165.4485 137,-196.6 137,-407.8 137,-407.8 137,-407.8 137,-445.9434 161.9266,-483.784 180.9076,-507.0693"/>
<polygon fill="#000000" stroke="#000000" points="178.4481,-509.5815 187.5744,-514.9631 183.796,-505.0649 178.4481,-509.5815"/>
<text text-anchor="middle" x="150.6899" y="-289.6" font-family="Times,serif" font-size="14.00" fill="#000000">x|x|S</text>
<text text-anchor="middle" x="150.6899" y="-272.8" font-family="Times,serif" font-size="14.00" fill="#000000">y|y|S</text>
</g>
<!-- q8&#45;&gt;q8 -->
<g id="edge16" class="edge">
<title>q8-&gt;q8</title>
<path fill="none" stroke="#000000" d="M178.4435,-97.6907C189.0278,-98.1521 198,-95.9219 198,-91 198,-87.77 194.136,-85.6992 188.4881,-84.7876"/>
<polygon fill="#000000" stroke="#000000" points="188.5987,-81.289 178.4435,-84.3093 188.2656,-88.2811 188.5987,-81.289"/>
<text text-anchor="middle" x="212.8519" y="-95.2" font-family="Times,serif" font-size="14.00" fill="#000000">0|0|D</text>
<text text-anchor="middle" x="212.8519" y="-78.4" font-family="Times,serif" font-size="14.00" fill="#000000">1|1|D</text>
</g>
<!-- qf -->
<g id="node11" class="node">
<title>qf</title>
<ellipse fill="none" stroke="#000000" cx="153" cy="-18" rx="27" ry="18"/>
<text text-anchor="middle" x="153" y="-13.8" font-family="Times,serif" font-size="14.00" fill="#000000">qf</text>
</g>
<!-- q8&#45;&gt;qf -->
<g id="edge15" class="edge">
<title>q8-&gt;qf</title>
<path fill="none" stroke="#000000" d="M153,-72.9551C153,-64.8828 153,-55.1764 153,-46.1817"/>
<polygon fill="#000000" stroke="#000000" points="156.5001,-46.0903 153,-36.0904 149.5001,-46.0904 156.5001,-46.0903"/>
</g>
<!-- q10&#45;&gt;q7 -->
<g id="edge20" class="edge">
<title>q10-&gt;q7</title>
<path fill="none" stroke="#000000" d="M209,-267.0006C209,-254.8949 209,-238.8076 209,-225.0674"/>
<polygon fill="#000000" stroke="#000000" points="212.5001,-224.672 209,-214.672 205.5001,-224.6721 212.5001,-224.672"/>
<text text-anchor="middle" x="223.8519" y="-236.8" font-family="Times,serif" font-size="14.00" fill="#000000">x|0|D</text>
</g>
<!-- q10&#45;&gt;q10 -->
<g id="edge21" class="edge">
<title>q10-&gt;q10</title>
<path fill="none" stroke="#000000" d="M233.5325,-293.5211C244.5078,-294.2945 254,-291.5875 254,-285.4 254,-281.2428 249.7151,-278.6567 243.5743,-277.6417"/>
<polygon fill="#000000" stroke="#000000" points="243.6524,-274.1424 233.5325,-277.2789 243.3995,-281.1378 243.6524,-274.1424"/>
<text text-anchor="middle" x="268.8519" y="-289.6" font-family="Times,serif" font-size="14.00" fill="#000000">1|1|G</text>
<text text-anchor="middle" x="268.8519" y="-272.8" font-family="Times,serif" font-size="14.00" fill="#000000">0|0|G</text>
</g>
</g>
</svg>