<?xml version="1.0" encoding="UTF-8" standalone="no"?><!DOCTYPE svg PUBLIC "-//W3C//DTD SVG 1.1//EN" "http://www.w3.org/Graphics/SVG/1.1/DTD/svg11.dtd"><!-- Generated by graphviz version 2.40.1 (20161225.0304)
 --><!-- Title: exo1 Pages: 1 --><svg xmlns="http://www.w3.org/2000/svg" xmlns:xlink="http://www.w3.org/1999/xlink" width="169pt" height="466pt" viewBox="0.00 0.00 169.02 466.40">
<g id="graph0" class="graph" transform="scale(1 1) rotate(0) translate(4 462.4)">
<title>exo1</title>
<polygon fill="#ffffff" stroke="transparent" points="-4,4 -4,-462.4 165.0178,-462.4 165.0178,4 -4,4"/>
<!-- q0 -->
<g id="node1" class="node">
<title>q0</title>
<ellipse fill="none" stroke="#000000" cx="51.7074" cy="-440.4" rx="27" ry="18"/>
<text text-anchor="middle" x="51.7074" y="-436.2" font-family="Times,serif" font-size="14.00" fill="#000000">q0</text>
</g>
<!-- q0&#45;&gt;q0 -->
<g id="edge1" class="edge">
<title>q0-&gt;q0</title>
<path fill="none" stroke="#000000" d="M76.2398,-448.5211C87.2152,-449.2945 96.7074,-446.5875 96.7074,-440.4 96.7074,-436.2428 92.4225,-433.6567 86.2817,-432.6417"/>
<polygon fill="#000000" stroke="#000000" points="86.3597,-429.1424 76.2398,-432.2789 86.1069,-436.1378 86.3597,-429.1424"/>
<text text-anchor="middle" x="128.8626" y="-444.6" font-family="Times,serif" font-size="14.00" fill="#000000">1,1|1,1|D,D</text>
<text text-anchor="middle" x="128.8626" y="-427.8" font-family="Times,serif" font-size="14.00" fill="#000000">0,0|0,0|D,D</text>
</g>
<!-- q1 -->
<g id="node2" class="node">
<title>q1</title>
<ellipse fill="none" stroke="#000000" cx="51.7074" cy="-351.6" rx="27" ry="18"/>
<text text-anchor="middle" x="51.7074" y="-347.4" font-family="Times,serif" font-size="14.00" fill="#000000">q1</text>
</g>
<!-- q0&#45;&gt;q1 -->
<g id="edge2" class="edge">
<title>q0-&gt;q1</title>
<path fill="none" stroke="#000000" d="M51.7074,-422.0006C51.7074,-409.8949 51.7074,-393.8076 51.7074,-380.0674"/>
<polygon fill="#000000" stroke="#000000" points="55.2075,-379.672 51.7074,-369.672 48.2075,-379.6721 55.2075,-379.672"/>
<text text-anchor="middle" x="83.8626" y="-391.8" font-family="Times,serif" font-size="14.00" fill="#000000">b,b|b,b|D,D</text>
</g>
<!-- q2 -->
<g id="node3" class="node">
<title>q2</title>
<ellipse fill="none" stroke="#000000" cx="51.7074" cy="-212.4" rx="27" ry="18"/>
<text text-anchor="middle" x="51.7074" y="-208.2" font-family="Times,serif" font-size="14.00" fill="#000000">q2</text>
</g>
<!-- q1&#45;&gt;q2 -->
<g id="edge3" class="edge">
<title>q1-&gt;q2</title>
<path fill="none" stroke="#000000" d="M30.9077,-339.5502C22.5934,-333.5219 13.9285,-325.4056 9.397,-315.6 -3.1323,-288.4885 -3.1323,-275.5115 9.397,-248.4 12.4416,-241.8119 17.3521,-235.9863 22.7685,-231.0443"/>
<polygon fill="#000000" stroke="#000000" points="25.3411,-233.4645 30.9077,-224.4498 20.9345,-228.0256 25.3411,-233.4645"/>
<text text-anchor="middle" x="41.8626" y="-303" font-family="Times,serif" font-size="14.00" fill="#000000">0,0|0,0|G,G</text>
<text text-anchor="middle" x="41.8626" y="-286.2" font-family="Times,serif" font-size="14.00" fill="#000000">0,1|0,1|G,G</text>
<text text-anchor="middle" x="41.8626" y="-269.4" font-family="Times,serif" font-size="14.00" fill="#000000">1,0|1,0|G,G</text>
<text text-anchor="middle" x="41.8626" y="-252.6" font-family="Times,serif" font-size="14.00" fill="#000000">1,1|1,1|G,G</text>
</g>
<!-- q2&#45;&gt;q1 -->
<g id="edge4" class="edge">
<title>q2-&gt;q1</title>
<path fill="none" stroke="#000000" d="M64.282,-228.7159C68.0835,-234.595 71.7632,-241.4901 73.7074,-248.4 81.7967,-277.1503 81.7967,-286.8497 73.7074,-315.6 72.6745,-319.2709 71.1519,-322.9376 69.3814,-326.45"/>
<polygon fill="#000000" stroke="#000000" points="66.2501,-324.8736 64.282,-335.2841 72.3126,-328.3731 66.2501,-324.8736"/>
<text text-anchor="middle" x="110.7006" y="-303" font-family="Times,serif" font-size="14.00" fill="#000000">0,0|0,0|G,S</text>
<text text-anchor="middle" x="110.7006" y="-286.2" font-family="Times,serif" font-size="14.00" fill="#000000">0,1|0,1|G,S</text>
<text text-anchor="middle" x="110.7006" y="-269.4" font-family="Times,serif" font-size="14.00" fill="#000000">1,0|1,0|G,S</text>
<text text-anchor="middle" x="110.7006" y="-252.6" font-family="Times,serif" font-size="14.00" fill="#000000">1,1|1,1|G,S</text>
</g>
<!-- q3 -->
<g id="node4" class="node">
<title>q3</title>
<ellipse fill="none" stroke="#000000" cx="51.7074" cy="-123.6" rx="27" ry="18"/>
<text text-anchor="middle" x="51.7074" y="-119.4" font-family="Times,serif" font-size="14.00" fill="#000000">q3</text>
</g>
<!-- q2&#45;&gt;q3 -->
<g id="edge5" class="edge">
<title>q2-&gt;q3</title>
<path fill="none" stroke="#000000" d="M51.7074,-194.0006C51.7074,-181.8949 51.7074,-165.8076 51.7074,-152.0674"/>
<polygon fill="#000000" stroke="#000000" points="55.2075,-151.672 51.7074,-141.672 48.2075,-151.6721 55.2075,-151.672"/>
<text text-anchor="middle" x="83.8626" y="-163.8" font-family="Times,serif" font-size="14.00" fill="#000000">b,b|b,b|D,D</text>
</g>
<!-- q3&#45;&gt;q3 -->
<g id="edge6" class="edge">
<title>q3-&gt;q3</title>
<path fill="none" stroke="#000000" d="M76.2398,-131.7211C87.2152,-132.4945 96.7074,-129.7875 96.7074,-123.6 96.7074,-119.4428 92.4225,-116.8567 86.2817,-115.8417"/>
<polygon fill="#000000" stroke="#000000" points="86.3597,-112.3424 76.2398,-115.4789 86.1069,-119.3378 86.3597,-112.3424"/>
<text text-anchor="middle" x="128.8626" y="-127.8" font-family="Times,serif" font-size="14.00" fill="#000000">1,1|1,1|D,D</text>
<text text-anchor="middle" x="128.8626" y="-111" font-family="Times,serif" font-size="14.00" fill="#000000">0,0|0,0|D,D</text>
</g>
<!-- qf -->
<g id="node5" class="node">
<title>qf</title>
<ellipse fill="none" stroke="#000000" cx="51.7074" cy="-18" rx="27" ry="18"/>
<text text-anchor="middle" x="51.7074" y="-13.8" font-family="Times,serif" font-size="14.00" fill="#000000">qf</text>
</g>
<!-- q3&#45;&gt;qf -->
<g id="edge7" class="edge">
<title>q3-&gt;qf</title>
<path fill="none" stroke="#000000" d="M51.7074,-105.2059C51.7074,-88.9279 51.7074,-64.9223 51.7074,-46.2163"/>
<polygon fill="#000000" stroke="#000000" points="55.2075,-46.1833 51.7074,-36.1833 48.2075,-46.1834 55.2075,-46.1833"/>
<text text-anchor="middle" x="83.8626" y="-75" font-family="Times,serif" font-size="14.00" fill="#000000">0,b|0,b|D,D</text>
<text text-anchor="middle" x="83.8626" y="-58.2" font-family="Times,serif" font-size="14.00" fill="#000000">1,b|1,b|D,D</text>
</g>
</g>
</svg>