<?xml version="1.0" encoding="UTF-8" standalone="no"?><!DOCTYPE svg PUBLIC "-//W3C//DTD SVG 1.1//EN" "http://www.w3.org/Graphics/SVG/1.1/DTD/svg11.dtd"><!-- Generated by graphviz version 2.40.1 (20161225.0304)
 --><!-- Title: exo_3 Pages: 1 --><svg xmlns="http://www.w3.org/2000/svg" xmlns:xlink="http://www.w3.org/1999/xlink" width="209pt" height="442pt" viewBox="0.00 0.00 209.47 442.40">
<g id="graph0" class="graph" transform="scale(1 1) rotate(0) translate(4 438.4)">
<title>exo_3</title>
<polygon fill="#ffffff" stroke="transparent" points="-4,4 -4,-438.4 205.4689,-438.4 205.4689,4 -4,4"/>
<!-- q0 -->
<g id="node1" class="node">
<title>q0</title>
<ellipse fill="none" stroke="#000000" cx="126.3359" cy="-416.4" rx="27" ry="18"/>
<text text-anchor="middle" x="126.3359" y="-412.2" font-family="Times,serif" font-size="14.00" fill="#000000">q0</text>
</g>
<!-- q0&#45;&gt;q0 -->
<g id="edge1" class="edge">
<title>q0-&gt;q0</title>
<path fill="none" stroke="#000000" d="M150.8684,-424.5211C161.8437,-425.2945 171.3359,-422.5875 171.3359,-416.4 171.3359,-412.2428 167.051,-409.6567 160.9102,-408.6417"/>
<polygon fill="#000000" stroke="#000000" points="160.9882,-405.1424 150.8684,-408.2789 160.7354,-412.1378 160.9882,-405.1424"/>
<text text-anchor="middle" x="185.4024" y="-412.2" font-family="Times,serif" font-size="14.00" fill="#000000">a|a|D</text>
</g>
<!-- q1 -->
<g id="node2" class="node">
<title>q1</title>
<ellipse fill="none" stroke="#000000" cx="50.3359" cy="-320.4" rx="27" ry="18"/>
<text text-anchor="middle" x="50.3359" y="-316.2" font-family="Times,serif" font-size="14.00" fill="#000000">q1</text>
</g>
<!-- q0&#45;&gt;q1 -->
<g id="edge2" class="edge">
<title>q0-&gt;q1</title>
<path fill="none" stroke="#000000" d="M113.4435,-400.1149C101.3606,-384.8522 83.1474,-361.8461 69.3882,-344.4661"/>
<polygon fill="#000000" stroke="#000000" points="71.9891,-342.1126 63.0378,-336.4446 66.5007,-346.4575 71.9891,-342.1126"/>
<text text-anchor="middle" x="114.5244" y="-367.8" font-family="Times,serif" font-size="14.00" fill="#000000">B|B|G</text>
</g>
<!-- q1&#45;&gt;q1 -->
<g id="edge3" class="edge">
<title>q1-&gt;q1</title>
<path fill="none" stroke="#000000" d="M73.9505,-329.5461C85.309,-330.6753 95.3359,-327.6266 95.3359,-320.4 95.3359,-315.5447 90.8096,-312.5753 84.3942,-311.4918"/>
<polygon fill="#000000" stroke="#000000" points="84.0276,-307.9826 73.9505,-311.2539 83.8681,-314.9808 84.0276,-307.9826"/>
<text text-anchor="middle" x="113.2944" y="-333" font-family="Times,serif" font-size="14.00" fill="#000000">X|X|G</text>
<text text-anchor="middle" x="113.2944" y="-316.2" font-family="Times,serif" font-size="14.00" fill="#000000">0|0|G</text>
<text text-anchor="middle" x="113.2944" y="-299.4" font-family="Times,serif" font-size="14.00" fill="#000000">1|1|G</text>
</g>
<!-- q2 -->
<g id="node3" class="node">
<title>q2</title>
<ellipse fill="none" stroke="#000000" cx="72.3359" cy="-114" rx="27" ry="18"/>
<text text-anchor="middle" x="72.3359" y="-109.8" font-family="Times,serif" font-size="14.00" fill="#000000">q2</text>
</g>
<!-- q1&#45;&gt;q2 -->
<g id="edge4" class="edge">
<title>q1-&gt;q2</title>
<path fill="none" stroke="#000000" d="M37.2266,-304.5329C18.8195,-280.2293 -10.8332,-232.3577 4.2955,-192 12.7822,-169.3606 31.1428,-148.9728 46.6541,-134.7235"/>
<polygon fill="#000000" stroke="#000000" points="49.2576,-137.0938 54.4384,-127.8521 44.6251,-131.8459 49.2576,-137.0938"/>
<text text-anchor="middle" x="19.3561" y="-213" font-family="Times,serif" font-size="14.00" fill="#000000">B|0|D</text>
</g>
<!-- q3 -->
<g id="node4" class="node">
<title>q3</title>
<ellipse fill="none" stroke="#000000" cx="72.3359" cy="-217.2" rx="27" ry="18"/>
<text text-anchor="middle" x="72.3359" y="-213" font-family="Times,serif" font-size="14.00" fill="#000000">q3</text>
</g>
<!-- q1&#45;&gt;q3 -->
<g id="edge5" class="edge">
<title>q1-&gt;q3</title>
<path fill="none" stroke="#000000" d="M43.0833,-302.9926C39.0587,-290.8304 35.7076,-274.3395 40.3109,-260.4 42.5926,-253.4907 46.4533,-246.7843 50.72,-240.7978"/>
<polygon fill="#000000" stroke="#000000" points="53.7251,-242.6364 57.1252,-232.602 48.2097,-238.326 53.7251,-242.6364"/>
<text text-anchor="middle" x="55.3484" y="-264.6" font-family="Times,serif" font-size="14.00" fill="#000000">a|X|G</text>
</g>
<!-- q2&#45;&gt;q0 -->
<g id="edge8" class="edge">
<title>q2-&gt;q0</title>
<path fill="none" stroke="#000000" d="M93.5647,-125.3262C115.2087,-138.2164 147.5097,-161.498 161.3359,-192 191.5403,-258.6339 159.5745,-346.559 139.6924,-389.9075"/>
<polygon fill="#000000" stroke="#000000" points="136.4116,-388.6584 135.3013,-399.1949 142.7399,-391.6505 136.4116,-388.6584"/>
<text text-anchor="middle" x="187.4024" y="-264.6" font-family="Times,serif" font-size="14.00" fill="#000000">a|a|D</text>
</g>
<!-- q2&#45;&gt;q2 -->
<g id="edge6" class="edge">
<title>q2-&gt;q2</title>
<path fill="none" stroke="#000000" d="M95.9505,-123.1461C107.309,-124.2753 117.3359,-121.2266 117.3359,-114 117.3359,-109.1447 112.8096,-106.1753 106.3942,-105.0918"/>
<polygon fill="#000000" stroke="#000000" points="106.0276,-101.5826 95.9505,-104.8539 105.8681,-108.5808 106.0276,-101.5826"/>
<text text-anchor="middle" x="135.2944" y="-126.6" font-family="Times,serif" font-size="14.00" fill="#000000">X|X|D</text>
<text text-anchor="middle" x="135.2944" y="-109.8" font-family="Times,serif" font-size="14.00" fill="#000000">0|0|D</text>
<text text-anchor="middle" x="135.2944" y="-93" font-family="Times,serif" font-size="14.00" fill="#000000">1|1|D</text>
</g>
<!-- qf -->
<g id="node5" class="node">
<title>qf</title>
<ellipse fill="none" stroke="#000000" cx="72.3359" cy="-18" rx="27" ry="18"/>
<text text-anchor="middle" x="72.3359" y="-13.8" font-family="Times,serif" font-size="14.00" fill="#000000">qf</text>
</g>
<!-- q2&#45;&gt;qf -->
<g id="edge7" class="edge">
<title>q2-&gt;qf</title>
<path fill="none" stroke="#000000" d="M72.3359,-95.9431C72.3359,-82.0862 72.3359,-62.6861 72.3359,-46.7075"/>
<polygon fill="#000000" stroke="#000000" points="75.836,-46.3023 72.3359,-36.3023 68.836,-46.3023 75.836,-46.3023"/>
<text text-anchor="middle" x="88.3624" y="-58.2" font-family="Times,serif" font-size="14.00" fill="#000000">B|B|S</text>
</g>
<!-- q3&#45;&gt;q1 -->
<g id="edge10" class="edge">
<title>q3-&gt;q1</title>
<path fill="none" stroke="#000000" d="M74.5149,-235.3106C75.435,-247.3518 75.6416,-263.4244 72.3359,-277.2 70.9016,-283.177 68.4952,-289.2596 65.7881,-294.9011"/>
<polygon fill="#000000" stroke="#000000" points="62.6219,-293.4022 61.0668,-303.8823 68.818,-296.6594 62.6219,-293.4022"/>
<text text-anchor="middle" x="88.4024" y="-264.6" font-family="Times,serif" font-size="14.00" fill="#000000">a|a|G</text>
</g>
<!-- q3&#45;&gt;q2 -->
<g id="edge11" class="edge">
<title>q3-&gt;q2</title>
<path fill="none" stroke="#000000" d="M72.3359,-198.7499C72.3359,-183.1207 72.3359,-160.455 72.3359,-142.4954"/>
<polygon fill="#000000" stroke="#000000" points="75.836,-142.2903 72.3359,-132.2904 68.836,-142.2904 75.836,-142.2903"/>
<text text-anchor="middle" x="88.3561" y="-161.4" font-family="Times,serif" font-size="14.00" fill="#000000">B|1|G</text>
</g>
<!-- q3&#45;&gt;q3 -->
<g id="edge9" class="edge">
<title>q3-&gt;q3</title>
<path fill="none" stroke="#000000" d="M95.9505,-226.3461C107.309,-227.4753 117.3359,-224.4266 117.3359,-217.2 117.3359,-212.3447 112.8096,-209.3753 106.3942,-208.2918"/>
<polygon fill="#000000" stroke="#000000" points="106.0276,-204.7826 95.9505,-208.0539 105.8681,-211.7808 106.0276,-204.7826"/>
<text text-anchor="middle" x="135.2944" y="-229.8" font-family="Times,serif" font-size="14.00" fill="#000000">X|X|G</text>
<text text-anchor="middle" x="135.2944" y="-213" font-family="Times,serif" font-size="14.00" fill="#000000">0|0|G</text>
<text text-anchor="middle" x="135.2944" y="-196.2" font-family="Times,serif" font-size="14.00" fill="#000000">1|1|G</text>
</g>
</g>
</svg>