<?xml version="1.0" encoding="UTF-8" standalone="no"?><!DOCTYPE svg PUBLIC "-//W3C//DTD SVG 1.1//EN" "http://www.w3.org/Graphics/SVG/1.1/DTD/svg11.dtd"><!-- Generated by graphviz version 2.40.1 (20161225.0304)
 --><!-- Title: exo_4 Pages: 1 --><svg xmlns="http://www.w3.org/2000/svg" xmlns:xlink="http://www.w3.org/1999/xlink" width="144pt" height="222pt" viewBox="0.00 0.00 144.31 221.60">
<g id="graph0" class="graph" transform="scale(1 1) rotate(0) translate(4 217.6)">
<title>exo_4</title>
<polygon fill="#ffffff" stroke="transparent" points="-4,4 -4,-217.6 140.3104,-217.6 140.3104,4 -4,4"/>
<!-- q0 -->
<g id="node1" class="node">
<title>q0</title>
<ellipse fill="none" stroke="#000000" cx="27" cy="-195.6" rx="27" ry="18"/>
<text text-anchor="middle" x="27" y="-191.4" font-family="Times,serif" font-size="14.00" fill="#000000">q0</text>
</g>
<!-- q0&#45;&gt;q0 -->
<g id="edge1" class="edge">
<title>q0-&gt;q0</title>
<path fill="none" stroke="#000000" d="M51.5325,-203.7211C62.5078,-204.4945 72,-201.7875 72,-195.6 72,-191.4428 67.7151,-188.8567 61.5743,-187.8417"/>
<polygon fill="#000000" stroke="#000000" points="61.6524,-184.3424 51.5325,-187.4789 61.3995,-191.3378 61.6524,-184.3424"/>
<text text-anchor="middle" x="103.5735" y="-191.4" font-family="Times,serif" font-size="14.00" fill="#000000">0,B|0,0|DD</text>
</g>
<!-- q1 -->
<g id="node2" class="node">
<title>q1</title>
<ellipse fill="none" stroke="#000000" cx="27" cy="-106.8" rx="27" ry="18"/>
<text text-anchor="middle" x="27" y="-102.6" font-family="Times,serif" font-size="14.00" fill="#000000">q1</text>
</g>
<!-- q0&#45;&gt;q1 -->
<g id="edge2" class="edge">
<title>q0-&gt;q1</title>
<path fill="none" stroke="#000000" d="M27,-177.2006C27,-165.0949 27,-149.0076 27,-135.2674"/>
<polygon fill="#000000" stroke="#000000" points="30.5001,-134.872 27,-124.872 23.5001,-134.8721 30.5001,-134.872"/>
<text text-anchor="middle" x="60.3298" y="-147" font-family="Times,serif" font-size="14.00" fill="#000000">1,B|1,B|S,G</text>
</g>
<!-- q1&#45;&gt;q1 -->
<g id="edge3" class="edge">
<title>q1-&gt;q1</title>
<path fill="none" stroke="#000000" d="M51.5325,-114.9211C62.5078,-115.6945 72,-112.9875 72,-106.8 72,-102.6428 67.7151,-100.0567 61.5743,-99.0417"/>
<polygon fill="#000000" stroke="#000000" points="61.6524,-95.5424 51.5325,-98.6789 61.3995,-102.5378 61.6524,-95.5424"/>
<text text-anchor="middle" x="104.1552" y="-102.6" font-family="Times,serif" font-size="14.00" fill="#000000">1,0|1,0|D,G</text>
</g>
<!-- qf -->
<g id="node3" class="node">
<title>qf</title>
<ellipse fill="none" stroke="#000000" cx="27" cy="-18" rx="27" ry="18"/>
<text text-anchor="middle" x="27" y="-13.8" font-family="Times,serif" font-size="14.00" fill="#000000">qf</text>
</g>
<!-- q1&#45;&gt;qf -->
<g id="edge4" class="edge">
<title>q1-&gt;qf</title>
<path fill="none" stroke="#000000" d="M27,-88.4006C27,-76.2949 27,-60.2076 27,-46.4674"/>
<polygon fill="#000000" stroke="#000000" points="30.5001,-46.072 27,-36.072 23.5001,-46.0721 30.5001,-46.072"/>
<text text-anchor="middle" x="61.5044" y="-58.2" font-family="Times,serif" font-size="14.00" fill="#000000">B,B|B,B|S,S</text>
</g>
</g>
</svg>