<?xml version="1.0" encoding="UTF-8" standalone="no"?><!DOCTYPE svg PUBLIC "-//W3C//DTD SVG 1.1//EN" "http://www.w3.org/Graphics/SVG/1.1/DTD/svg11.dtd"><!-- Generated by graphviz version 2.40.1 (20161225.0304)
 --><!-- Title: exo_5 Pages: 1 --><svg xmlns="http://www.w3.org/2000/svg" xmlns:xlink="http://www.w3.org/1999/xlink" width="263pt" height="399pt" viewBox="0.00 0.00 263.09 399.20">
<g id="graph0" class="graph" transform="scale(1 1) rotate(0) translate(4 395.2)">
<title>exo_5</title>
<polygon fill="#ffffff" stroke="transparent" points="-4,4 -4,-395.2 259.0888,-395.2 259.0888,4 -4,4"/>
<!-- q0 -->
<g id="node1" class="node">
<title>q0</title>
<ellipse fill="none" stroke="#000000" cx="103" cy="-373.2" rx="27" ry="18"/>
<text text-anchor="middle" x="103" y="-369" font-family="Times,serif" font-size="14.00" fill="#000000">q0</text>
</g>
<!-- q1 -->
<g id="node2" class="node">
<title>q1</title>
<ellipse fill="none" stroke="#000000" cx="103" cy="-284.4" rx="27" ry="18"/>
<text text-anchor="middle" x="103" y="-280.2" font-family="Times,serif" font-size="14.00" fill="#000000">q1</text>
</g>
<!-- q0&#45;&gt;q1 -->
<g id="edge1" class="edge">
<title>q0-&gt;q1</title>
<path fill="none" stroke="#000000" d="M103,-354.8006C103,-342.6949 103,-326.6076 103,-312.8674"/>
<polygon fill="#000000" stroke="#000000" points="106.5001,-312.472 103,-302.472 99.5001,-312.4721 106.5001,-312.472"/>
<text text-anchor="middle" x="139.0374" y="-324.6" font-family="Times,serif" font-size="14.00" fill="#000000">a,B|A,X|D,D</text>
</g>
<!-- q1&#45;&gt;q1 -->
<g id="edge2" class="edge">
<title>q1-&gt;q1</title>
<path fill="none" stroke="#000000" d="M127.5325,-292.5211C138.5078,-293.2945 148,-290.5875 148,-284.4 148,-280.2428 143.7151,-277.6567 137.5743,-276.6417"/>
<polygon fill="#000000" stroke="#000000" points="137.6524,-273.1424 127.5325,-276.2789 137.3995,-280.1378 137.6524,-273.1424"/>
<text text-anchor="middle" x="179.7611" y="-280.2" font-family="Times,serif" font-size="14.00" fill="#000000">a,x|a,X|S,D</text>
</g>
<!-- qf1 -->
<g id="node3" class="node">
<title>qf1</title>
<ellipse fill="none" stroke="#000000" cx="27" cy="-18" rx="27" ry="18"/>
<text text-anchor="middle" x="27" y="-13.8" font-family="Times,serif" font-size="14.00" fill="#000000">qf1</text>
</g>
<!-- q1&#45;&gt;qf1 -->
<g id="edge3" class="edge">
<title>q1-&gt;qf1</title>
<path fill="none" stroke="#000000" d="M89.8827,-268.2965C72.3447,-245.6495 42.0656,-202.3582 29.9912,-159.6 19.2664,-121.6211 20.8135,-75.607 23.4604,-46.5605"/>
<polygon fill="#000000" stroke="#000000" points="26.973,-46.6145 24.5054,-36.311 20.0091,-45.9044 26.973,-46.6145"/>
<text text-anchor="middle" x="64.5044" y="-147" font-family="Times,serif" font-size="14.00" fill="#000000">B,B|B,B|S,S</text>
</g>
<!-- q2 -->
<g id="node4" class="node">
<title>q2</title>
<ellipse fill="none" stroke="#000000" cx="103" cy="-195.6" rx="27" ry="18"/>
<text text-anchor="middle" x="103" y="-191.4" font-family="Times,serif" font-size="14.00" fill="#000000">q2</text>
</g>
<!-- q1&#45;&gt;q2 -->
<g id="edge4" class="edge">
<title>q1-&gt;q2</title>
<path fill="none" stroke="#000000" d="M103,-266.0006C103,-253.8949 103,-237.8076 103,-224.0674"/>
<polygon fill="#000000" stroke="#000000" points="106.5001,-223.672 103,-213.672 99.5001,-223.6721 106.5001,-223.672"/>
<text text-anchor="middle" x="135.9294" y="-235.8" font-family="Times,serif" font-size="14.00" fill="#000000">a,B|a,X|S,D</text>
</g>
<!-- q3 -->
<g id="node5" class="node">
<title>q3</title>
<ellipse fill="none" stroke="#000000" cx="103" cy="-106.8" rx="27" ry="18"/>
<text text-anchor="middle" x="103" y="-102.6" font-family="Times,serif" font-size="14.00" fill="#000000">q3</text>
</g>
<!-- q2&#45;&gt;q3 -->
<g id="edge5" class="edge">
<title>q2-&gt;q3</title>
<path fill="none" stroke="#000000" d="M103,-177.2006C103,-165.0949 103,-149.0076 103,-135.2674"/>
<polygon fill="#000000" stroke="#000000" points="106.5001,-134.872 103,-124.872 99.5001,-134.8721 106.5001,-134.872"/>
<text text-anchor="middle" x="137.0914" y="-147" font-family="Times,serif" font-size="14.00" fill="#000000">a,B|a,X|D,G</text>
</g>
<!-- q3&#45;&gt;q1 -->
<g id="edge7" class="edge">
<title>q3-&gt;q1</title>
<path fill="none" stroke="#000000" d="M128.6813,-112.9862C144.1493,-118.1793 162.6145,-127.317 172,-142.8 196.3293,-182.9351 196.3293,-208.2649 172,-248.4 164.5209,-260.738 151.2762,-269.0467 138.3769,-274.5409"/>
<polygon fill="#000000" stroke="#000000" points="136.7929,-271.3981 128.6813,-278.2138 139.2727,-277.9442 136.7929,-271.3981"/>
<text text-anchor="middle" x="222.5444" y="-191.4" font-family="Times,serif" font-size="14.00" fill="#000000">a,B|a,B|S,D</text>
</g>
<!-- q3&#45;&gt;qf1 -->
<g id="edge8" class="edge">
<title>q3-&gt;qf1</title>
<path fill="none" stroke="#000000" d="M89.4127,-90.9243C77.6327,-77.1603 60.4246,-57.054 47.0594,-41.4378"/>
<polygon fill="#000000" stroke="#000000" points="49.6311,-39.0598 40.4696,-33.7382 44.3129,-43.6114 49.6311,-39.0598"/>
<text text-anchor="middle" x="106.5044" y="-58.2" font-family="Times,serif" font-size="14.00" fill="#000000">B,B|B,B|S,S</text>
</g>
<!-- q3&#45;&gt;q3 -->
<g id="edge6" class="edge">
<title>q3-&gt;q3</title>
<path fill="none" stroke="#000000" d="M127.5325,-114.9211C138.5078,-115.6945 148,-112.9875 148,-106.8 148,-102.6428 143.7151,-100.0567 137.5743,-99.0417"/>
<polygon fill="#000000" stroke="#000000" points="137.6524,-95.5424 127.5325,-98.6789 137.3995,-102.5378 137.6524,-95.5424"/>
<text text-anchor="middle" x="182.4764" y="-102.6" font-family="Times,serif" font-size="14.00" fill="#000000">a,X|a,X|D,G</text>
</g>
</g>
</svg>